PathFileType	4	(X/Y/Z)	 New Session 105.trc
DataRate	CameraRate	NumFrames	NumMarkers	Units	OrigDataRate	OrigDataStartFrame	OrigNumFrames
100	100	22	14	m	100	89	711
Frame#	Time	C7			T8			IJ			PX			AA			AC			AI			TS			SC			GH			LE			ME			US			RS			
		X1	Y1	Z1	X2	Y2	Z2	X3	Y3	Z3	X4	Y4	Z4	X5	Y5	Z5	X6	Y6	Z6	X7	Y7	Z7	X8	Y8	Z8	X9	Y9	Z9	X10	Y10	Z10	X11	Y11	Z11	X12	Y12	Z12	X13	Y13	Z13	X14	Y14	Z14	
89	0.8900	0.019953	0.097546	0.172201	0.025072	-0.119445	0.235081	-0.002267	-0.001383	0.003352	0.003373	-0.142463	-0.068362	0.207497	0.016362	0.163488	0.162021	0.056121	0.087414	0.094815	0.021952	0.210738	0.101133	-0.099239	0.236527	0.022162	0.008145	0.007632	0.221890	0.030641	0.124684	0.307707	-0.255829	0.102737	0.222494	-0.305451	0.115587	0.303055	-0.399055	-0.138137	0.289538	-0.323032	-0.156641	
90	0.9000	0.020000	0.097536	0.172262	0.025132	-0.119462	0.235191	-0.002142	-0.001423	0.003388	0.003466	-0.142439	-0.068320	0.207544	0.016347	0.163606	0.162089	0.056143	0.087524	0.094846	0.021952	0.210843	0.101199	-0.099229	0.236654	0.022263	0.008142	0.007726	0.221958	0.030641	0.124838	0.307634	-0.255886	0.102704	0.222455	-0.305479	0.115561	0.302927	-0.398943	-0.138229	0.289419	-0.322934	-0.156699	
91	0.9100	0.020041	0.097541	0.172330	0.025185	-0.119459	0.235255	-0.002028	-0.001464	0.003425	0.003562	-0.142437	-0.068258	0.207590	0.016347	0.163707	0.162150	0.056161	0.087623	0.094862	0.021965	0.210945	0.101269	-0.099209	0.236802	0.022367	0.008133	0.007801	0.222022	0.030644	0.124968	0.307526	-0.255946	0.102662	0.222397	-0.305500	0.115522	0.302811	-0.398823	-0.138323	0.289317	-0.322808	-0.156749	
92	0.9200	0.020086	0.097552	0.172401	0.025229	-0.119434	0.235272	-0.001928	-0.001498	0.003475	0.003658	-0.142454	-0.068179	0.207645	0.016347	0.163796	0.162206	0.056168	0.087715	0.094869	0.021990	0.211040	0.101338	-0.099185	0.236957	0.022467	0.008113	0.007863	0.222084	0.030646	0.125069	0.307397	-0.256007	0.102618	0.222320	-0.305515	0.115486	0.302706	-0.398714	-0.138417	0.289220	-0.322667	-0.156796	
93	0.9300	0.020142	0.097558	0.172462	0.025267	-0.119394	0.235254	-0.001842	-0.001518	0.003545	0.003751	-0.142481	-0.068093	0.207714	0.016337	0.163880	0.162261	0.056165	0.087797	0.094874	0.022020	0.211126	0.101399	-0.099162	0.237094	0.022558	0.008085	0.007922	0.222140	0.030640	0.125153	0.307272	-0.256066	0.102581	0.222237	-0.305527	0.115465	0.302610	-0.398634	-0.138512	0.289124	-0.322524	-0.156844	
94	0.9400	0.020205	0.097556	0.172503	0.025303	-0.119347	0.235227	-0.001772	-0.001521	0.003637	0.003839	-0.142504	-0.068018	0.207789	0.016324	0.163958	0.162317	0.056152	0.087866	0.094892	0.022044	0.211198	0.101445	-0.099144	0.237186	0.022639	0.008050	0.007982	0.222186	0.030630	0.125233	0.307173	-0.256121	0.102558	0.222166	-0.305541	0.115460	0.302522	-0.398588	-0.138606	0.289028	-0.322391	-0.156890	
95	0.9500	0.020269	0.097554	0.172528	0.025338	-0.119300	0.235209	-0.001717	-0.001509	0.003743	0.003917	-0.142515	-0.067962	0.207861	0.016320	0.164023	0.162369	0.056132	0.087925	0.094927	0.022056	0.211252	0.101475	-0.099135	0.237227	0.022710	0.008014	0.008043	0.222219	0.030625	0.125299	0.307108	-0.256171	0.102546	0.222120	-0.305555	0.115458	0.302440	-0.398555	-0.138696	0.288936	-0.322274	-0.156933	
96	0.9600	0.020320	0.097562	0.172551	0.025373	-0.119256	0.235194	-0.001679	-0.001487	0.003852	0.003987	-0.142510	-0.067928	0.207924	0.016328	0.164074	0.162418	0.056118	0.087982	0.094979	0.022057	0.211292	0.101496	-0.099136	0.237233	0.022780	0.007981	0.008097	0.222252	0.030626	0.125354	0.307081	-0.256214	0.102544	0.222095	-0.305568	0.115454	0.302362	-0.398515	-0.138770	0.288853	-0.322172	-0.156970	
97	0.9700	0.020353	0.097580	0.172574	0.025406	-0.119218	0.235181	-0.001657	-0.001464	0.003957	0.004047	-0.142497	-0.067909	0.207981	0.016335	0.164115	0.162467	0.056113	0.088034	0.095042	0.022053	0.211322	0.101515	-0.099142	0.237231	0.022853	0.007955	0.008138	0.222295	0.030628	0.125402	0.307094	-0.256248	0.102553	0.222081	-0.305579	0.115450	0.302285	-0.398466	-0.138819	0.288785	-0.322087	-0.156997	
98	0.9800	0.020374	0.097604	0.172596	0.025439	-0.119190	0.235186	-0.001650	-0.001448	0.004052	0.004102	-0.142481	-0.067896	0.208035	0.016332	0.164150	0.162517	0.056111	0.088071	0.095106	0.022048	0.211348	0.101539	-0.099146	0.237246	0.022931	0.007937	0.008163	0.222344	0.030627	0.125445	0.307148	-0.256272	0.102575	0.222068	-0.305592	0.115452	0.302210	-0.398407	-0.138840	0.288736	-0.322016	-0.157013	
99	0.9900	0.020401	0.097619	0.172613	0.025473	-0.119179	0.235228	-0.001652	-0.001444	0.004131	0.004152	-0.142467	-0.067882	0.208084	0.016323	0.164179	0.162566	0.056110	0.088094	0.095159	0.022048	0.211372	0.101571	-0.099142	0.237296	0.023010	0.007923	0.008178	0.222388	0.030624	0.125482	0.307240	-0.256286	0.102610	0.222060	-0.305612	0.115464	0.302146	-0.398341	-0.138839	0.288709	-0.321958	-0.157016	
100	1.0000	0.020446	0.097617	0.172627	0.025508	-0.119182	0.235314	-0.001647	-0.001449	0.004186	0.004203	-0.142458	-0.067864	0.208131	0.016316	0.164210	0.162609	0.056101	0.088115	0.095193	0.022054	0.211399	0.101613	-0.099126	0.237382	0.023084	0.007910	0.008188	0.222428	0.030620	0.125511	0.307348	-0.256292	0.102655	0.222065	-0.305630	0.115483	0.302106	-0.398280	-0.138831	0.288704	-0.321912	-0.157007	
101	1.0100	0.020500	0.097605	0.172643	0.025543	-0.119189	0.235422	-0.001617	-0.001461	0.004210	0.004255	-0.142453	-0.067842	0.208180	0.016310	0.164242	0.162647	0.056090	0.088138	0.095215	0.022063	0.211426	0.101661	-0.099101	0.237492	0.023143	0.007892	0.008203	0.222471	0.030612	0.125532	0.307449	-0.256291	0.102700	0.222096	-0.305637	0.115501	0.302098	-0.398248	-0.138822	0.288716	-0.321878	-0.156985	
102	1.0200	0.020548	0.097595	0.172664	0.025574	-0.119183	0.235508	-0.001555	-0.001477	0.004210	0.004310	-0.142449	-0.067818	0.208228	0.016307	0.164274	0.162683	0.056080	0.088162	0.095233	0.022074	0.211456	0.101710	-0.099070	0.237601	0.023183	0.007872	0.008223	0.222514	0.030611	0.125544	0.307526	-0.256284	0.102738	0.222149	-0.305630	0.115514	0.302125	-0.398258	-0.138808	0.288742	-0.321854	-0.156956	
103	1.0300	0.020588	0.097597	0.172688	0.025603	-0.119157	0.235554	-0.001469	-0.001499	0.004199	0.004368	-0.142444	-0.067796	0.208269	0.016321	0.164300	0.162716	0.056076	0.088187	0.095256	0.022086	0.211484	0.101757	-0.099038	0.237689	0.023215	0.007860	0.008243	0.222552	0.030625	0.125556	0.307583	-0.256267	0.102768	0.222212	-0.305616	0.115534	0.302184	-0.398297	-0.138781	0.288777	-0.321842	-0.156923	
104	1.0400	0.020622	0.097614	0.172711	0.025633	-0.119123	0.235588	-0.001374	-0.001524	0.004192	0.004425	-0.142436	-0.067781	0.208305	0.016348	0.164315	0.162749	0.056087	0.088209	0.095294	0.022096	0.211507	0.101797	-0.099004	0.237740	0.023254	0.007861	0.008257	0.222586	0.030649	0.125569	0.307630	-0.256239	0.102794	0.222285	-0.305601	0.115572	0.302256	-0.398341	-0.138737	0.288817	-0.321843	-0.156888	
105	1.0500	0.020654	0.097641	0.172727	0.025672	-0.119099	0.235659	-0.001283	-0.001547	0.004195	0.004482	-0.142424	-0.067774	0.208343	0.016374	0.164322	0.162787	0.056116	0.088226	0.095350	0.022106	0.211520	0.101829	-0.098969	0.237755	0.023311	0.007871	0.008261	0.222616	0.030680	0.125578	0.307678	-0.256201	0.102823	0.222376	-0.305581	0.115632	0.302327	-0.398373	-0.138677	0.288864	-0.321856	-0.156850	
106	1.0600	0.020688	0.097670	0.172734	0.025722	-0.119092	0.235777	-0.001203	-0.001565	0.004209	0.004537	-0.142411	-0.067778	0.208380	0.016400	0.164329	0.162829	0.056151	0.088239	0.095419	0.022116	0.211521	0.101856	-0.098934	0.237744	0.023384	0.007880	0.008260	0.222652	0.030712	0.125589	0.307733	-0.256156	0.102856	0.222479	-0.305553	0.115706	0.302391	-0.398388	-0.138604	0.288922	-0.321882	-0.156803	
107	1.0700	0.020727	0.097696	0.172730	0.025778	-0.119095	0.235910	-0.001137	-0.001581	0.004228	0.004590	-0.142400	-0.067788	0.208416	0.016431	0.164336	0.162874	0.056182	0.088246	0.095490	0.022128	0.211513	0.101884	-0.098907	0.237721	0.023467	0.007881	0.008256	0.222694	0.030738	0.125599	0.307796	-0.256109	0.102896	0.222585	-0.305519	0.115782	0.302457	-0.398382	-0.138521	0.289007	-0.321916	-0.156738	
108	1.0800	0.020775	0.097719	0.172715	0.025836	-0.119096	0.236020	-0.001085	-0.001597	0.004241	0.004642	-0.142395	-0.067800	0.208453	0.016463	0.164343	0.162915	0.056200	0.088245	0.095559	0.022143	0.211498	0.101919	-0.098894	0.237699	0.023550	0.007872	0.008249	0.222739	0.030759	0.125604	0.307862	-0.256062	0.102943	0.222684	-0.305487	0.115855	0.302533	-0.398358	-0.138429	0.289146	-0.321947	-0.156644	
109	1.0900	0.020833	0.097741	0.172686	0.025891	-0.119086	0.236087	-0.001043	-0.001615	0.004240	0.004694	-0.142405	-0.067806	0.208492	0.016493	0.164346	0.162951	0.056206	0.088234	0.095626	0.022164	0.211476	0.101964	-0.098896	0.237685	0.023624	0.007855	0.008237	0.222788	0.030776	0.125600	0.307926	-0.256021	0.102995	0.222776	-0.305460	0.115924	0.302628	-0.398329	-0.138330	0.289356	-0.321964	-0.156513	
110	1.1000	0.020893	0.097762	0.172642	0.025944	-0.119062	0.236113	-0.001008	-0.001635	0.004221	0.004747	-0.142437	-0.067796	0.208531	0.016515	0.164338	0.162989	0.056208	0.088213	0.095694	0.022188	0.211447	0.102017	-0.098909	0.237678	0.023685	0.007832	0.008215	0.222847	0.030794	0.125588	0.307984	-0.255987	0.103053	0.222864	-0.305441	0.115992	0.302748	-0.398322	-0.138227	0.289636	-0.321967	-0.156350	
